/* XPM */
static char *_0d37a9874c545d2ebc10d2272e1a795VgVKJmoTVyFRspql[] = {
/* columns rows colors chars-per-pixel */
"91 50 213 2 ",
"   c #000101",
".  c #070A0A",
"X  c #0B0C0B",
"o  c #090805",
"O  c #120E0B",
"+  c #0F100C",
"@  c #13120E",
"#  c #070D17",
"$  c #141413",
"%  c #1B1B16",
"&  c #1B1C1B",
"*  c #14181B",
"=  c #0E1212",
"-  c #2B190E",
";  c #2C190D",
":  c #22211D",
">  c #2C2218",
",  c #352617",
"<  c #151C26",
"1  c #19222C",
"2  c #1B2534",
"3  c #242422",
"4  c #2B2A24",
"5  c #2C2D2C",
"6  c #242626",
"7  c #382C23",
"8  c #373027",
"9  c #232C37",
"0  c #2B333A",
"q  c #343434",
"w  c #373939",
"e  c #3B3C3C",
"r  c #363839",
"t  c #4C2D14",
"y  c #41311E",
"u  c #4C2C0D",
"i  c #612F1C",
"p  c #422E20",
"a  c #493322",
"s  c #453829",
"d  c #533F2C",
"f  c #443D33",
"g  c #40403F",
"h  c #564B39",
"j  c #52422E",
"k  c #66462B",
"l  c #795333",
"z  c #684C3B",
"x  c #1C314D",
"c  c #212E41",
"v  c #2C3542",
"b  c #293749",
"n  c #3E3F40",
"m  c #2E3E52",
"M  c #3A485A",
"N  c #384D67",
"B  c #454545",
"V  c #484847",
"C  c #464849",
"Z  c #4A4B4B",
"A  c #474947",
"S  c #584D44",
"D  c #5C564A",
"F  c #474C53",
"G  c #4D5151",
"H  c #475158",
"J  c #545455",
"K  c #5B5C5D",
"L  c #585755",
"P  c #744D45",
"I  c #695847",
"U  c #6B5E4D",
"Y  c #766549",
"T  c #6A6458",
"R  c #746155",
"E  c #4E5E6B",
"W  c #5D6164",
"Q  c #5C636D",
"!  c #646464",
"~  c #656B6E",
"^  c #6D6D6D",
"/  c #7A7164",
"(  c #687175",
")  c #747475",
"_  c #7C7C7C",
"`  c #787675",
"'  c #6D6A6A",
"]  c #885B38",
"[  c #98683F",
"{  c #926943",
"}  c #866E52",
"|  c #887357",
" . c #967854",
".. c #92724D",
"X. c #A8734B",
"o. c #B67746",
"O. c #857869",
"+. c #9C7962",
"@. c #95825B",
"#. c #B0845B",
"$. c #8F8D7F",
"%. c #94846E",
"&. c #BF8B60",
"*. c #A49173",
"=. c #B49767",
"-. c #BBA379",
";. c #C88F59",
":. c #C69460",
">. c #C3A570",
",. c #CDAE78",
"<. c #D3A970",
"1. c #ECAE70",
"2. c #E3B97D",
"3. c #FEBA76",
"4. c #F7B46F",
"5. c #3A658C",
"6. c #6B7A84",
"7. c #7A8287",
"8. c #7B9FB6",
"9. c #8C8B8A",
"0. c #828283",
"q. c #958F8A",
"w. c #939494",
"e. c #9C9C9C",
"r. c #989899",
"t. c #93928F",
"y. c #A99A82",
"u. c #A49A96",
"i. c #ADA39E",
"p. c #899AA5",
"a. c #93A3AC",
"s. c #9CB1BD",
"d. c #A3A4A4",
"f. c #ADADAD",
"g. c #A0A4A8",
"h. c #A6B2B7",
"j. c #B4B4B4",
"k. c #BBBBBB",
"l. c #B7BBB8",
"z. c #DFBD83",
"x. c #C7B08A",
"c. c #DDC69C",
"v. c #EBC483",
"b. c #E7C386",
"n. c #F3CD8C",
"m. c #F9C986",
"M. c #FAD28D",
"N. c #FFD587",
"B. c #F0CE90",
"V. c #FBD491",
"C. c #FFDA94",
"Z. c #FAD897",
"A. c #FFE197",
"S. c #CDC4BB",
"D. c #EFCFA2",
"F. c #FBDEAB",
"G. c #FFE4A4",
"H. c #FCE0B0",
"J. c #BBBEC2",
"K. c #BDC2C5",
"L. c #B4C1C6",
"P. c #BFCCD1",
"I. c #B9D1DD",
"U. c #C2C3C3",
"Y. c #C5CACC",
"T. c #CDCCCC",
"R. c #C5C7C9",
"E. c #D0CFCE",
"W. c #CACED1",
"Q. c #D3D4D4",
"!. c #D5DADD",
"~. c #DCDBDC",
"^. c #E0DFDF",
"/. c #E1D7C3",
"(. c #FFF3C4",
"). c #C3DBE6",
"_. c #DFE4E5",
"`. c #E5E5E5",
"'. c gray91",
"]. c #E9E9E9",
"[. c #EAEAEA",
"{. c gray92",
"}. c #ECECEC",
"|. c gray93",
" X c #EEEEEE",
".X c #EFEFEF",
"XX c #ECECEC",
"oX c #E7E8E9",
"OX c #EEF1F3",
"+X c #EFF6F8",
"@X c gray94",
"#X c #F1F1F1",
"$X c gray95",
"%X c #F3F3F3",
"&X c #F4F4F4",
"*X c gray96",
"=X c #F6F6F6",
"-X c gray97",
";X c #F4F4F4",
":X c #F5F7F9",
">X c #F4F9FB",
",X c #F8F8F8",
"<X c #F9F9F9",
"1X c gray98",
"2X c #FBFBFB",
"3X c gray99",
"4X c #FDFDFD",
"5X c #FEFEFE",
"6X c white",
"7X c #FEFEFD",
"8X c #FCFCFC",
"9X c #F9F8F7",
"0X c #EBEDF0",
/* pixels */
"5X5X$X{.,X5X-X{.$X5X5X.X.X5X5X$X{.,X5X-X{.$X5X5X.X.X,X5X$X{.-X5X-X{.-X5X,X.X.X,X5X#X}.<X5X%X{.$X5X,X.X.X5X5X#X{.<X5X%X}.$X5X5X}..X2X5X$X{.9X5X-X{.$X5X3X.X.X,X5X$X{.,X5X-X{.$X5X5X.X.X",
"5X5X$X{.,X5X-X{.$X5X,X{..X,X5X$X{.,X5X-X{.$X5X,X{..X5X5X.X{.-X5X-X{.$X5X5X{..X5X5X#X{.<X5X-X{.$X5X5X}.}.5X5X#X{.<X5X-X{.%X5X,X}..X5X5X@X{.,X5X-X{.$X5X,X.X.X5X5X$X{.,X5X-X{.-X5X,X.X{.",
".X$X,X,X-X.X-X,X,X.X$X5X,X.X.X,X5X$X.X-X5X-X.X$X,X,X$X$X,X5X$X.X-X,X,X.X-X,X,X$X}.-X5X%X#X-X5X<X#X%X,X5X#X#X<X5X%X.X-X5X-X.X%X5X,X$X@X,X5X*X.X-X5X-X$X$X,X2X$X$X,X5X-X.X-X,X-X.X$X,X,X",
"{.{.5X5X$X`.-X5X,X{..X5X5X.X{.5X5X$X`.-X5X,X{..X5X5X.X{.5X5X$X{.-X5X,X{..X5X5X{.<X5X5X#X`.%X5X%X`.}.5X5X}.'.5X5X$X'.%X5X<X{..X5X5X.X{.3X5X$X`.-X5X,X{..X5X5X{.{.,X5X$X`.-X5X-X{.$X5X5X",
",X,X$X$X-X,X-X$X-X,X-X$X$X,X,X-X$X-X,X-X$X-X,X-X-X$X-X,X-X$X-X,X-X$X%X<X-X$X,X5Xf.J.5X5X5X5X5X5X5X5X%X#X<X<X%X$X-X,X-X$X%X,X<X$X$X,X,X%X$X-X-X-X$X-X,X-X$X$X-X,X&X$X-X,X-X$X-X,X-X$X-X",
"5X5X.X{.,X5X-X`.$X5X,X{..X5X5X.X{.,X5X-X{.$X5X,X{.{.5X5X.X`.,X5X-X'.%X5X,X`.Q._ . w.w.^ ! K K ` d.T.}.5X5X5X.X'.,X5X-X'.$X5X5X{.{.5X5XOX{.,X5X-X`.$X5X5X{..X5X5X.X'.,X5X-X`.$X5X,X{.{.",
"-X-X-X-X-X-X-X-X-X-X-X-X&X-X-X-X-X-X$X-X-X-X-X-X-X-X-X-X-X-X-X-X%X-X-X.X5Xl.$ 5 f n 5 w e e e w 5 5 G d.5X<X%X-X-X-X-X%X-X-X-X-X-X-X-X-X-X-X-X-X-X-X-X-X-X-X-X-X-X-X-X-X-X-X-X-X-X-X-X",
"{.{.,X5X$X{.-X5X,X`..X5X5X.X{.,X5X$X`.-X5X-X`..X5X5X{.{.5X5X$X`.-X5X-X%X.X0.q Z B C Z A A A A A C w 3 X J ~.5X5X$X`.-X5X<X`..X5X5X{.{.3X5X.X`.-X5X,X`..X5X5X{.{.,X5X$X'.-X5X,X`..X5X5X",
"&X$X-X-X-X$X-X,X,X%X-X,X,X$X$X-X,X-X$X-X-X-X$X-X,X,X$X$X-X,X-X$X-X-X5Xj.5 q C B C V B B B B B B B C B 3 5 Q.5X-X-X$X-X<X-X$X%X,X-X$X$X-X,X-X$X-X,X,X$X-X-X-X$X-X,X-X-X$X-X,X-X$X-X-X,X",
"5X5X.X{.,X5X-X`.$X5X,X{..X5X5X.X{.,X5X-X`.$X5X5X{..X5X5X.X{.,X5X%X{.#XJ : Z B B G r C C B f B A B B Z C 6 ! .X.X<X5X-X`.$X5X5X{..X5X5X$X{.,X5X$X{.$X5X,X{..X5X5X$X{.,X5X-X`.$X5X,X.X{.",
"3X,X$X$X-X,X-X.X-X5X,X$X$X,X,X-X$X-X,X-X$X-X,X,XOX@X,X5X$X$X-X,X-X.X5X0.e V C Z G & B B 5 M w Z C Z B q e * ! 3X-X5X-X.X%X2X,X#X.X,X,X-X.X-X5X-X.X$X5X,X.X$X,X,X$X.X-X,X-X.X-X,X,X$X$X",
".X.X3X5X&XXX-X5X,X{..X5X5X.X.X,X5X$X{.-X5X,X.X.X5X3X.X.X,X5X$X{.%X5XQ.& B B C e C O q 5 $ q 3 A Z G 5 5 Z 5 % j.5X`.-X5X,X{.#X5X5X.X.X,X5X$X{.-X5X,X{..X5X5X.X{.,X5X-X{.-X5X,X{.$X5X5X",
".X.X,X5X$X.X-X5X-X.X$X5X,X.X.X,X5X$X{.-X5X9X.X$X5X2X.X.X,X5X$X.X$X5X` $ B e B 5 5 l > & o $ $ w G V O & Z q % A -X.X-X5X,X.X$X5X,X$X.X,X5X$X{.-X5X,X.X$X3X,X$X.X5X5X$X.X-X5X-X.X$X,X5X",
",X5X$X.X,X5X-X{.$X5X,X.X$X5X5X$X.X,X5X-X.X$X5X,X.X.X2X5X$XXX,X5X-X$Xq 3 q e e & $ 2.{   > ]   6 B e . p : 5 & % T.5X$X{.%X5X,X.X$X,X5X$X.X-X5X-X.X$X5X,X.X.X5X5XOX.X-X5X-X{.-X5X,X.X.X",
"5X5X.X{.-X5X-X{.$X5X,X.X.X5X5X.X{.-X5X-X{.$X5X3XXX.X5X5X$X.X,X5X,X~.$ 6 5 e w X 8 C.2.% @.A.k   5 5 O 2.a X &   e.5X$X{.$X5X,X.X.X5X5X$X{.-X5X-X{.$X5X,X.X.X5X5X.X{.9X5X-X{.$X5X5X.X.X",
"$X$X,X2X-X.X-X,X-X$X$X,X,X$X$X,X5X$X$X-X,X-X.X$X2X,X$X@X,X,X-X.X5X~.o 4 : w 8 X 4 I z j Y b.1., : $ d b.#.  % $ w.5X$X5X-X$X$X,X,X$X$X,X,X-X$X-X,X-X.X-X,X,X$X$X9X3X-X.X-X,X-X.X$X,X,X",
"{.{.,X5X$X{.-X5X,X{..X5X5X.X{.,X5X$X{.-X5X-X{..X5X5X.X{.,X5X$X`.5X^.X : & 5 8 t j b.b.b.,.=.m.m.a %  ./ } O @ g .X].*X5X9X{..X5X5X.X{.5X5X$X{.-X5X-X{..X5X5X.X{.5X5X$X{.-X5X,X{.$X5X5X",
",X,X-X$X,X,X-X$X-X,X-X$X$X-X-X$X$X,X,X%X$X-X-X-X$X$X-X,X-X$X-X,X2X~.@ : % 6 p  .n j , h } 2.n.A.] s >.>.=.@ $ w 9X1X*X$X-X,X=X$X$X-X,X$X$X-X,X$X$X-X-X-X$X$X9X,X$X$X-X,X-X$X-X,X-X$X$X",
"5X5X.X`.,X5X-X`.$X5X,X{.{.5X5X.X{.,X5X-X`.$X5X,X{.{.5X5X.X{.-X5X=X'.6 % & * y x.8.> > `.K ( n.C.&.q ; L D % + A 3X5X*X'.$X5X3X{.{.5X5X.X{.-X5X-X`.$X5X,X'.{.5X5X.X{.,X5X-X`..X5X,X{.{.",
"-X-X-X-X-X-X-X-X-X-X-X-X-X-X-X-X-X-X-X-X-X-X-X-X-X-X-X-X-X-X-X$X$X5XL X : = y F.l.t > f j l.C.m.D.^ 7 9.W %   ` 3X$X9X*X-X*X*X-X-X-X-X-X-X-X-X-X-X-X-X-X-X-X-X*X-X-X-X$X-X-X-X-X-X-X-X",
"{.{.5X5X$X`.-X5X,X{..X5X5X.X{.,X5X$X`.-X5X,X{..X5X5X.X{.5X5X$X`.$X5Xd.  : X s N./.h t , / H.M.n.G.q.- h T $ o T.5X`.-X5X9X{..X5X5X.X{.,X5X.X{.-X5X,X{..X5X5X{.{.,X5X$X{.-X5X,X{..X5X5X",
"$X$X-X9X-X$X-X,X-X$X$X-X-X$X-X-X-X-X-X-X,X-X$X$X,X-X$X$X-X-X-X-X-X2X{.% % X 8 N.B.*.k Y c.C.M.M.A.y.; *.I   K 5X$X$X-X,X-X$X-X=X,X$X$X-X,X-X$X-X,X-X$X-X,X,X*X*X-X,X-X$X-X,X-X$X$X,X,X",
"5X5XOX'.,X5X-X'.$X5X,X{..X5X5X$X{.-X5X-X{.$X5X5X{..X5X5X.X{.,X5X-X'.-XU.8   7 m.N.C.A.C.M.M.M.V.C.v.>.Z.T   k.=X-X5X-X`.$X5X,XXX.X5X5X.X{.,X5X-X{.$X5X5X{.XX5X5X.X{.-X5X-X`.$X5X,X{..X",
",X5X$X$X,X,X-X.X-X5X,X.X$X,X,X-X.X-X,X-X.X-X,X,X$X$X,X,X$X.X-X,X-X@X$X5Xk.  ; 3.A.n.n.M.V.V.C.M.V.M.A.(.4 & $X@X-X5X-X.X-X,X,X$X$X,X5X$X.X-X,X$X.X&X,X,XOX@X,X3X$X.X-X5X-X.X-X5X,X.X$X",
".X{.,X5X$X{.-X5X-X{..X5X5X.X.X,X5X$X{.-X5X,X{..X5X5X.X.X,X5X-X{.-X5X,X`.5Xw.Z #.v.A.A.C.C.n.B.C.C.G.F.D   r.5X5X$X{.-X5X,X{..X5X5X.X{.,X5X-X{.-X5X,X{.$X5X5X.X.X,X5X$X{.-X5X,X{.$X5X5X",
".X.X,X5X$X.X-X5X9X.XOX5X,X$X.X,X5X$X.X-X5X-X.X$X5X,X.X.X,X5X$X.X-X5X-X.X$X5X5XJ.D | =.b.v.-.2.b.,.@.L ! ) ,X=X5X$X.X-X5X-X.X$X5X5X$X.X,X5X$X.X-X5X-X.X$X5X,X.X.X,X5X$X.X-X5X-X.X$X5X5X",
"3X5X$X.X-X5X-X.X-X5X,X.X.X,X5X$X{.-X5X-X{.$X5X,X.X.X,X5X$X{.-X5X%X{.$X5X2X,Xr.q s.a.e @ 8 T / T ` e.~.5X5X5X$X{.-X5X$X{.-X5X,X.X.X,X5X$X{.,X5X-X.X$X5X,X.X.X,X5X$X.X-X5X-X{.$X5X,X.X.X",
"5X5X$X{.-X5X-X{.$X5X,X{..X5X5X$X{.-X5X-X{.-X5X,X{..X5X5X$X{.-X5X-X{.$X5X5X0.< c _ *XT.d.j.) {.>X5X5X@X{.2X5X$X{.-X5X5X$X$X5X,X{..X5X5X.X{.,X5X-X{.$X5X,X{..X5X5X$X{.-X5X-X{.-X5X,X{..X",
".X$X,X5X-X.X-X,X-X.X$X,X,X$X.X,X5X$X.X-X,X-X.X$X,X5X.X.X,X5X-X.X-X5X$X2Xf.# M m p.`.R.Q..XW $X,XXX.X,X2X$X.X-X5X5XQ.9.E.5X}.$X5X,X$X.X,X,X$X.X-X5X-X.X$X,X5X$X.X,X5X$X.X$X5X-X.X$X,X5X",
"{.{.,X5X$X'.-X5X-X{..X5X5X.X{.5X5X$X{.-X5X,X{..X5X5X.X.X5X5X$X{.-X5X=X&X$.a < 7.L.^.'.R.L.J .X5X{..X5X5X{.XX5XOX9.z [ O.>X{..X5X5X.X{.5X5X$X{.-X5X,X{..X5X5X.X{.5X5X$X{.-X5X-X{.$X5X5X",
",X,X-X$X-X,X-X$X-X,X-X$X%X-X,X$X$X-X,X-X$X-X-X-X$X$X,X,X$X$X-X,X-X.X3XT.:.*.M ).h.~.'.`.~.0.k.5X,X,X$X$X5X=Xd.P ]  .O.j.2X,X-X$X$X-X-X-X$X,X,X-X$X-X,X-X$X$X,X,X$X$X-X,X-X$X-X-X,X$X$X",
"5X5X.X{.,X5X-X{.$X5X5X{..X5X5X$X{.,X5X-X{.$X5X5X{.{.5X5X.X{.,X5X-X`.3Xu.:.O.p.I.h.`.].[.1XJ.9.5X5X,X&X:Xk.R l ..q.U.OX$X$X5X2X{..X5X5X.X{.,X5X-X`.$X5X5X{..X5X5X.X{.,X5X-X'.$X5X,X{.{.",
"-X-X-X-X-X-X-X-X-X-X-X-X-X*X*X-X-X-X%X-X-X-X-X&X-X-X&X-X-X-X-X-X-X$X5Xt.{ ) I.I.Y.[.oX0X@X#Xf.2X2X5XY.P i } u.T.<X5X-X%X-X%X-X-X-X-X$X-X-X-X-X-X-X-X$X-X-X-X-X$X-X-X-X$X-X-X-X$X-X-X-X",
"{.{.,X5X$X`.-X5X,X`..X5X5X{.{.3X5X$X'.-X5X,X`..X5X5X{.{.,X5X$X'.-X5X5Xi.<.*.( a.Y.[.OX=X#XT.f..XQ.R d P u.!.2X2X$X`.-X5X<X'..X5X5X{.{.,X5X$X`.-X5X-X`..X5X5X{.{.,X5X$X{.-X5X,X`..X5X5X",
"$X$X-X,X&X$X-X-X-X$X*X9X-X*X*X-X-X-X$X-X,X-X%X-X,X,X&X$X-X9X-X*X-X9X>X| N.-.# 2 c C J J F c > S s R k.:X5X<X%X-X%X%X<X-X-X%X%X<X9X-X%X-X,X-X$X-X,X-X&X-X-X,X$X-X,X-X-X$X-X,X,X-X$X,X-X",
"5X5X.X{.,X5X-X`.$X5X,X{..X5X5X.X{.-X5X-X'.$X5X3X{..X5X5X.X{.,X5X$X`.3X` ] l < v M b # * 9 N v d T.5X-X|.5X5X.X'.,X5X-X'.$X5X,X{..X5X5X.X{.,X5X-X{.$X5X,X{..X5X5X$X{.-X5X-X`.$X5X5X{.{.",
",X,X$X$X-X,X-X$X-X,X,X$X$X,X3X%X.X-X,X,X$X%X,X,X.X$X,X3X$X$X-X,X%X#X%X5Xw.# 0 v m Q ! < v N c O.5X%X}.#X5X<X$X#X-X,X-X.X-X,X<X$X$X,X2X%X.X-X,X-X.X$X,X,X$X$X,X,X$X$X-X,X-X.X&X,X,X$X$X",
".X.X,X5X$X{.-X5X-X{.$X5X5X.XXX2X5X$X{.-X5X,X{.$X5X5X.X.X3X5X$X{.<X5X<X%XY.6 2 b c d.=X< v b # ^ <X}.5X5X}.}.5X5X$X{.-X5X<X{..X5X3X.XXX3X5X$X{.-X5X,X{.$X5X5X.X.X,X5X$X{.-X5X,X{.$X5X5X",
".X.X,X5X$X.X-X5X,X.X$X5X3X@X.X,X5X&X.X-X5X-XXX$X5X3X.X.X,X5X*X.X%X5X:X'.5X9.t 7 9 U.2Xq * 3 k S.<X#X5X5X#X}.,X5X-X}.-X5X<X.X$X5X3XOX.X,X5X-X{.-X5X,X.X$X5X,X$X.X5X5X$X.X-X5X,X.X$X5X,X",
"5X5X$X.X-X5X-X.X$X5X,X{..X2X5X$XXX,X5X&X.X$X5X,X.X@X,X5X$XXX-X5X-X}.#X5XR.X.4.y.2X=X[.`.h.X.<.J.5X<X}.}.5X5X$X}.<X5X-X}.$X5X,X}..X3X5X$X{.-X5X-X.X$X5X,X.X.X,X5X.X.X-X5X-X{.-X5X,X.X.X",
"5X5X$X{.-X5X-X`.$X5X5X.X.X5X5X$X{.,X5X-X{.$X5X5X{..X5X5X.X{.-X5X%X}.%X2X+.4.$.0X5X.X`.5XQ.;.-.!.5X-X{..X5X5X@X{.-X5X-X'.$X5X,X.X.X5X5X$X{.,X5X-X{.$X5X,X{..X5X5X.X{.-X5X-X`.$X5X3X.X{.",
"$X.X,X5X-X.X-X5X-X.X$X,X,XOX@X,X3X&X.X-X,X-X.X$X5X2XOX.X,X3X%X.X-X,X5XR.] ..J.5X@X5X5X5XW.o.:.r.XX,X2X2X$X.X,X5X%X.X-X5X-X.X$X5X,X.X.X,X3X&X.X-X5X-X$X$X5X,X$X.X,X5X-X.X-X5X,X.X$X5X,X",
"{.{.5X5X$X{.-X5X,X{..X5X5X.X{.2X5X$X{.-X5X,X{..X5X5X.X{.3X5X$X{.,X5X%XF 7.K.e.T.T.~.~.~.a.F ~ b K Q.,X5X$X.X2X5X$X{.-X5X,X{..X5X5X.XXX,X5X$X{.-X5X,X{.$X5X5X.X{.5X5X$X`.-X5X,X{.$X5X5X",
",X,X$X$X-X,X-X$X-X,X-X$X%X,X,X*X$X-X,X-X$X-X,X-X$X$X-X9X*X$X-X%XQ.U._ 1 E 6.H ` f.d.e.f.Q x 5.N H G f.f.U.~..X$X<X,X-X#X-X,X<X$X-X,X,X$X$X-X,X-X$X-X,X,X$X$X,X,X-X$X,X,X-X$X-X,X,X$X$X",
"5X5X.X{.-X5X-X{.$X5X5X{.{.5X5X.X{.,X5X&X{.$X5X,X{.{.5X5XOX`.,X5XQ.f.d.r.0.~ W w.f.e.w.f.w.J K W ~ ( d.f.R.'.{.{.<X5X-X`.$X5X5X{.{.5X5X.X{.-X5X$X`.$X5X5X{.{.5X5X.X`.,X5X-X{.$X5X5X{.{.",
"-X$X-X-X-X$X-X-X-X-X&X-X-X-X&X-X-X$X-X-X-X-X-X-X-X-X-X-X-X-X-X-X2X,X*X#X.X}.`.~.Q.Q.Q.Q.Q.`.`.'.'..X.X%X<X-X-X-X-X-X-X-X-X%X$X-X-X-X-X-X-X-X-X-X-X-X$X-X-X-X-X-X-X,X%X-X-X-X-X$X$X-X-X",
"{.{.5X5X$X{.&X5X-X`..X5X5X{.{.5X5X$X{.-X5X,X`..X5X5X{.{.2X5X$X`.-X5X,X{.$X5X5X$X@X5X5X-X{.9X5X,X{..X5X5X{.{.5X5X$X`.-X5X,X'..X5X5X.X{.5X5X$X{.-X5X-X'..X5X5X{.{.3X5X$X'.-X5X,X{..X5X5X",
"-X$X-X,X$X$X-X-X-X$X-X-X-X-X$X-X-X-X$X-X,X-X$X-X,X-X$X-X-X9X-X$X-X-X-X&X$X-X-X$X%X-X9X-X$X*X9X-X%X%X-X-X-X$X-X-X-X$X-X<X-X$X-X,X-X%X$X-X,X$X$X-X,X-X$X-X,X-X$X-X-X,X-X$X$X-X-X&X-X-X,X",
"5X5X$X{.,X5X-X{.$X5X,X.X.X5X5X$X{.,X5X-X'.$X5X5X{..X5X5X.X{.,X5X-X`.$X5X2X{..X5X5X.X{.,X5X-X{.$X5X5X{..X5X5X.X{.9X5X-X'.$X5X2X{..X5X5X.X{.-X5X-X{.$X5X5X{..X5X5X.X{.,X5X-X{.$X5X,X{..X",
",X,X$X.X,X,X-X.X$X5X,X$X.X,X,X$X.X-X3X-X.X$X5X,X.X$X,X,X$X$X-X3X-X.X-X5X,X@X$X,X3X$X.X,X,X-X.X%X2X,X.X.X2X2X%X.X-X5X-X.X$X5X9X$X$X,X,X-X.X-X,X-X.X$X5X,X.X$X,X,X$X.X-X,X-X.X-X5X,X.X$X"
};
